<svg width="120" height="36" viewBox="0 0 120 36" fill="none" xmlns="http://www.w3.org/2000/svg">
<g clip-path="url(#clip0_172_6)">
<path d="M39.3933 13.9871C37.274 5.7594 30.5921 0 16.7297 0H0L2.26886 15.3584C3.9892 29.2209 9.27488 33.6838 18.6744 35.3293C18.7243 35.3293 19.0235 35.3792 19.0235 35.0301C19.0235 34.6811 18.9487 34.8057 18.8489 34.7559C12.5161 32.0881 11.7931 23.3368 10.4218 14.5356L9.37461 7.52961H18.9237C27.7249 7.52961 34.5315 7.38001 38.8448 14.1866C38.9196 14.2863 39.0193 14.3611 39.119 14.3611C39.2188 14.3611 39.4182 14.2364 39.4182 14.0619C39.4182 13.8874 39.4182 14.0121 39.4182 13.9871" fill="#5FAF2D"/>
<path d="M38.0221 16.3555H33.3847L29.6947 22.4889L25.8052 16.3555H20.9434L27.0269 25.5306L21.068 35.4288H25.7055L29.57 28.8716L33.5343 35.4288H38.1966L32.0632 25.8298L38.0221 16.3555Z" fill="black"/>
<path d="M46.8719 22.614C44.0545 22.614 43.1071 23.7111 43.1071 23.7111L43.4561 20.046H52.357L52.7809 16.3311H40.3645L39.068 27.4011H42.8578C43.7055 25.955 44.8274 25.5561 46.099 25.5561C48.0437 25.5561 49.3402 27.077 49.3402 28.8721C49.3402 30.6672 48.1684 32.0634 46.099 32.0634C44.0296 32.0634 43.1819 31.2407 42.9076 29.3458H38.9434C39.2425 33.7339 42.409 35.7535 46.074 35.7535C49.7391 35.7535 53.2795 33.1355 53.2795 28.9469C53.2795 24.9078 50.3126 22.614 46.8968 22.614H46.8719Z" fill="black"/>
<path d="M75.3222 15.9321H59.5898V18.2259H66.197V34.9556H68.6902V18.2259H75.3222V15.9321Z" fill="black"/>
<path d="M86.7147 22.4145C86.0914 21.7911 85.3435 21.3174 84.4958 20.9933C83.648 20.6443 82.7006 20.4697 81.6285 20.4697C80.5564 20.4697 79.609 20.6692 78.6865 21.0432C77.7889 21.4172 77.016 21.9158 76.3678 22.589C75.7195 23.2372 75.1959 24.0101 74.822 24.9326C74.448 25.8302 74.2734 26.8026 74.2734 27.8497C74.2734 28.8969 74.448 29.9441 74.822 30.8416C75.1959 31.7392 75.6946 32.5121 76.3179 33.1604C76.9661 33.7837 77.7391 34.2823 78.6366 34.6563C79.5342 35.0303 80.5315 35.2048 81.6285 35.2048C83.1993 35.2048 84.5456 34.8807 85.6177 34.2325C86.7147 33.5593 87.5624 32.6118 88.1359 31.3403L86.0665 30.5674C85.518 31.44 84.8947 32.0633 84.1966 32.4622C83.4985 32.8362 82.6507 33.0357 81.6036 33.0357C80.5564 33.0357 80.2822 32.936 79.6838 32.7116C79.0854 32.4872 78.5618 32.188 78.113 31.814C77.6892 31.4151 77.3152 30.9414 77.0409 30.4178C76.7916 29.8693 76.642 29.2958 76.6171 28.6476H88.6345C88.6345 28.4731 88.6595 28.2736 88.6595 28.0492C88.6595 27.8248 88.6844 27.6253 88.6844 27.4259C88.6844 26.4037 88.5099 25.4562 88.1608 24.6085C87.8118 23.7608 87.3381 23.0128 86.6898 22.4145H86.7147ZM76.7168 26.5283C76.7916 25.9549 76.9661 25.4562 77.2404 24.9825C77.5396 24.4839 77.8887 24.0849 78.3374 23.7359C78.7613 23.3868 79.2599 23.1375 79.8334 22.938C80.4068 22.7386 81.0052 22.6389 81.6285 22.6389C82.2518 22.6389 82.8502 22.7386 83.4237 22.938C83.9971 23.1375 84.4958 23.4118 84.9196 23.7857C85.3435 24.1348 85.6925 24.5337 85.9418 25.0074C86.1912 25.4812 86.3408 25.9798 86.3408 26.5283H76.7168Z" fill="black"/>
<path d="M118.455 22.1149C117.432 21.0927 115.961 20.5691 114.042 20.5691C112.122 20.5691 112.072 20.7686 111.274 21.1924C110.501 21.6163 109.878 22.2146 109.454 22.9875V15.1089H107.16V34.9801H109.454V26.9269C109.454 26.2288 109.554 25.6304 109.778 25.1068C110.002 24.5832 110.277 24.1344 110.651 23.8103C111.025 23.4363 111.473 23.187 111.972 23.0125C112.471 22.838 113.019 22.7382 113.593 22.7382C115.014 22.7382 116.036 23.1122 116.684 23.8353C117.358 24.5583 117.682 25.7052 117.682 27.2261V34.9801H119.975V27.0017C119.975 24.7827 119.452 23.1371 118.43 22.1398H118.455V22.1149Z" fill="black"/>
<path d="M94.2683 24.1592C94.717 23.7104 95.2656 23.3613 95.8639 23.0871C96.4872 22.8377 97.1853 22.7131 97.9333 22.7131C98.6813 22.7131 99.7534 22.9125 100.501 23.3364C101.249 23.7602 101.873 24.3586 102.346 25.1814L104.416 24.4085C103.842 23.1619 102.995 22.2144 101.898 21.5412C100.801 20.8681 99.5041 20.5439 97.9583 20.5439C96.4124 20.5439 95.8639 20.7185 94.9414 21.0925C94.0439 21.4664 93.246 21.9651 92.5728 22.6133C91.9246 23.2367 91.401 24.0096 91.027 24.9071C90.653 25.8047 90.4785 26.7771 90.4785 27.8492C90.4785 28.9213 90.653 29.9186 91.027 30.8161C91.401 31.7137 91.9246 32.4866 92.5728 33.1348C93.246 33.7831 94.0439 34.3067 94.9414 34.6557C95.8639 35.0297 96.8612 35.2042 97.9583 35.2042C99.0553 35.2042 100.776 34.8801 101.873 34.2319C102.97 33.5587 103.792 32.6113 104.366 31.3397L102.297 30.5668C101.773 31.4145 101.15 32.0378 100.452 32.4367C99.7534 32.8357 98.9306 33.0351 97.9583 33.0351C96.9859 33.0351 96.5371 32.9105 95.8889 32.6611C95.2656 32.4118 94.742 32.0627 94.2932 31.589C93.8444 31.1153 93.4953 30.5668 93.2211 29.9186C92.9967 29.2952 92.872 28.5971 92.872 27.8242C92.872 27.0513 92.9967 26.3781 93.2211 25.7548C93.4704 25.1315 93.8195 24.583 94.2932 24.1342H94.2683V24.1592Z" fill="black"/>
</g>
<defs>
<clipPath id="clip0_172_6">
<rect width="120" height="35.7532" fill="white"/>
</clipPath>
</defs>
</svg>
